<?xml version="1.0" encoding="UTF-8"?>
<svg id="Camada_1" data-name="Camada 1" xmlns="http://www.w3.org/2000/svg" viewBox="0 0 137.1 41.48">
  <path d="M60.3,2.87l-24.23,22.34c-.14.13-.09.36.09.41l14.37,4.44c.12.04.25-.03.3-.15L60.69,3.13c.09-.24-.21-.44-.39-.26" style="fill: #ee377d;"/>
  <path d="M35.64,28.17l10.48,13.21c.12.15.35.11.42-.07l3.39-9.05c.05-.13-.02-.28-.16-.32l-13.87-4.16c-.23-.07-.41.2-.26.38" style="fill: #ee377d;"/>
  <path d="M58.27,2.5c.23-.2-.03-.56-.29-.42L22.3,20.9c-.19.1-.17.38.04.45l11.04,3.41c.08.03.18,0,.24-.05L58.27,2.5Z" style="fill: #1561de;"/>
  <path d="M63.44,2.89v30.91c0,.16-.16.28-.32.23l-10.2-3.21c-.13-.04-.2-.19-.15-.32L62.98,2.8c.09-.26.47-.19.47.08M57.39,0L.19,13.9c-.24.06-.25.4-.01.47l18.48,5.76c.06.02.13.01.18-.02L57.56.46c.26-.13.11-.52-.17-.45" style="fill: #1561de;"/>
  <path d="M82.26,3.09c1.26,0,2.31.42,3.13,1.27.82.85,1.24,2.02,1.24,3.51v6.9c0,.1-.08.19-.19.19h-2.61c-.1,0-.19-.08-.19-.19v-6.53c0-.77-.21-1.36-.62-1.77-.42-.41-.97-.61-1.66-.61-.77,0-1.39.24-1.85.72-.46.48-.69,1.19-.69,2.15v6.05c0,.1-.09.19-.19.19h-2.61c-.1,0-.19-.08-.19-.19V3.6c0-.1.08-.19.19-.19h2.61c.1,0,.19.08.19.19v.57c0,.17.21.25.32.12.72-.8,1.76-1.2,3.12-1.2" style="fill: #1561de;"/>
  <path d="M98.04,3.42h2.61c.1,0,.19.08.19.19v11.17c0,.1-.09.19-.19.19h-2.61c-.1,0-.19-.08-.19-.19v-.68c0-.17-.2-.25-.32-.13-.86.88-2.01,1.32-3.44,1.32-1.54,0-2.86-.59-3.96-1.77-1.1-1.18-1.65-2.62-1.65-4.33s.55-3.15,1.65-4.33c1.1-1.18,2.42-1.77,3.96-1.77,1.43,0,2.58.44,3.44,1.32.12.12.32.04.32-.13v-.68c0-.1.08-.19.19-.19M92.36,11.53c.6.61,1.36.91,2.29.91s1.69-.3,2.3-.91c.61-.61.91-1.39.91-2.34s-.3-1.73-.91-2.34c-.61-.61-1.37-.91-2.3-.91s-1.69.3-2.29.91c-.6.61-.9,1.39-.9,2.34s.3,1.74.9,2.34" style="fill: #1561de;"/>
  <path d="M111.26,3.42h2.88c.13,0,.22.13.18.25l-4.25,11.17c-.03.07-.1.12-.17.12h-3.14c-.08,0-.15-.05-.18-.12l-4.24-11.17c-.05-.12.04-.25.17-.25h2.88c.08,0,.15.05.18.13l2.58,7.45c.06.17.29.17.35,0l2.59-7.45c.03-.07.1-.12.18-.12" style="fill: #1561de;"/>
  <path d="M117.89,10.41c.4,1.45,1.49,2.17,3.25,2.17,1.08,0,1.9-.34,2.49-1.03.06-.07.16-.09.24-.04l2.08,1.2c.1.06.13.18.06.27-1.14,1.53-2.77,2.3-4.91,2.3-1.91,0-3.44-.58-4.59-1.73-1.15-1.15-1.73-2.61-1.73-4.36s.57-3.19,1.71-4.35c1.14-1.16,2.6-1.74,4.39-1.74,1.69,0,3.09.59,4.19,1.75,1.1,1.17,1.65,2.62,1.65,4.34,0,.34-.03.69-.09,1.07-.01.09-.09.16-.18.16h-8.55ZM118.09,8.1h5.41c.12,0,.21-.12.18-.24-.19-.67-.52-1.17-.99-1.52-.53-.38-1.14-.58-1.81-.58-.8,0-1.46.2-1.99.61-.46.36-.79.85-.97,1.48-.04.12.05.24.18.24" style="fill: #1561de;"/>
  <path d="M84.57,21.14h2.61c.1,0,.19.08.19.19v11.17c0,.1-.08.19-.19.19h-2.61c-.1,0-.19-.08-.19-.19v-1.18c-.89,1.12-2.14,1.69-3.76,1.69s-2.86-.59-3.96-1.77c-1.1-1.18-1.65-2.62-1.65-4.33s.55-3.15,1.65-4.33c1.1-1.18,2.42-1.77,3.96-1.77,1.43,0,2.57.44,3.44,1.32.12.12.32.04.32-.13v-.68c0-.1.09-.19.19-.19M78.89,29.25c.6.61,1.36.91,2.28.91s1.69-.3,2.3-.91c.61-.61.91-1.39.91-2.34s-.3-1.73-.91-2.34c-.61-.61-1.37-.91-2.3-.91s-1.68.3-2.28.91c-.6.61-.9,1.39-.9,2.34s.3,1.74.9,2.34" style="fill: #1561de;"/>
  <path d="M102.12,21.14h2.88c.13,0,.22.13.17.25l-4.24,11.17c-.03.07-.1.12-.18.12h-3.14c-.08,0-.15-.05-.17-.12l-4.25-11.17c-.05-.12.04-.25.18-.25h2.88c.08,0,.15.05.18.13l2.58,7.45c.06.17.29.17.35,0l2.59-7.45c.03-.07.1-.12.18-.12" style="fill: #1561de;"/>
  <path d="M109,28.13c-.13,0-.22.13-.18.25.45,1.28,1.51,1.92,3.18,1.92,1.07,0,1.9-.34,2.48-1.03.06-.07.16-.09.24-.04l2.08,1.2c.1.06.13.18.06.27-1.14,1.53-2.77,2.3-4.91,2.3-1.91,0-3.44-.58-4.59-1.73-1.16-1.15-1.73-2.61-1.73-4.36s.57-3.19,1.71-4.35c1.14-1.16,2.6-1.74,4.39-1.74s3.09.59,4.19,1.75c1.1,1.17,1.65,2.62,1.65,4.34,0,.34-.03.69-.09,1.07-.01.09-.09.16-.19.16h-8.29ZM108.94,25.83h5.41c.13,0,.21-.12.18-.24-.18-.67-.52-1.17-.99-1.52-.53-.38-1.14-.58-1.81-.58-.8,0-1.46.2-1.98.61-.47.36-.79.85-.97,1.48-.04.12.05.24.18.24" style="fill: #1561de;"/>
  <path d="M119.65,32.5v-14.29c0-.1.08-.19.19-.19h2.6c.1,0,.19.08.19.19v14.29c0,.1-.08.19-.19.19h-2.6c-.1,0-.19-.08-.19-.19" style="fill: #1561de;"/>
  <path d="M134.31,21.14h2.61c.1,0,.19.08.19.19v11.17c0,.1-.08.19-.19.19h-2.61c-.1,0-.19-.08-.19-.19v-.68c0-.17-.2-.25-.32-.13-.86.88-2.01,1.32-3.44,1.32-1.54,0-2.86-.59-3.96-1.77-1.1-1.18-1.65-2.62-1.65-4.33s.55-3.15,1.65-4.33c1.1-1.18,2.42-1.77,3.96-1.77,1.43,0,2.58.44,3.44,1.32.12.12.32.04.32-.13v-.68c0-.1.08-.19.19-.19M128.63,29.25c.6.61,1.36.91,2.28.91s1.69-.3,2.3-.91c.61-.61.91-1.39.91-2.34s-.3-1.73-.91-2.34c-.61-.61-1.37-.91-2.3-.91s-1.69.3-2.28.91c-.6.61-.9,1.39-.9,2.34s.3,1.74.9,2.34" style="fill: #1561de;"/>
</svg>